<svg width="25" height="25" viewBox="0 0 25 25" fill="none" xmlns="http://www.w3.org/2000/svg">
<path d="M3.82354 16.9376L4.38604 17.4897L3.74021 18.1251C4.00159 18.5325 4.29413 18.9191 4.61521 19.2813L19.2819 4.60424C18.9185 4.29223 18.5358 4.00346 18.136 3.73966L17.4902 4.37507L16.9381 3.82299L17.4381 3.32299C15.4654 2.26213 13.2032 1.86541 10.9872 2.19168C8.77123 2.51796 6.71942 3.54984 5.13616 5.13427C3.5529 6.7187 2.52253 8.77127 2.19789 10.9875C1.87325 13.2038 2.27164 15.4656 3.33396 17.4376L3.82354 16.9376ZM15.4798 5.28132L16.0319 5.83341L14.584 7.29174L14.0319 6.73966L15.4798 5.28132ZM12.5735 8.19799L13.1152 8.75007L11.6673 10.2084L11.1152 9.65632L12.5735 8.19799ZM9.65688 11.1147L10.209 11.6667L8.75062 13.1147L8.19854 12.5626L9.65688 11.1147ZM6.74021 14.0209L7.29229 14.5834L5.83396 16.0417L5.28188 15.4897L6.74021 14.0209ZM6.86521 21.2605L7.51104 20.6251L8.06313 21.1772L7.56313 21.6772C9.53586 22.738 11.798 23.1347 14.014 22.8085C16.23 22.4822 18.2818 21.4503 19.8651 19.8659C21.4484 18.2814 22.4787 16.2289 22.8034 14.0126C23.128 11.7964 22.7296 9.53453 21.6673 7.56257L21.1777 8.06257L20.6152 7.51049L21.261 6.87507C20.9997 6.46764 20.7071 6.08107 20.386 5.71882L5.71937 20.3959C6.08275 20.7079 6.46546 20.9967 6.86521 21.2605ZM19.1673 8.96882L19.7194 9.52091L18.261 10.9792L17.709 10.4167L19.1673 8.96882ZM16.2506 11.8855L16.8027 12.4376L15.3444 13.8855L14.7923 13.3334L16.2506 11.8855ZM13.334 14.7917L13.886 15.3438L12.4381 16.8022L11.8756 16.2501L13.334 14.7917ZM10.4173 17.7084L10.9694 18.2605L9.51104 19.7188L8.95896 19.1667L10.4173 17.7084Z" fill="#C00D0B"/>
</svg>
