<svg width="24" height="24" viewBox="0 0 24 24" fill="none" xmlns="http://www.w3.org/2000/svg">
<path d="M18.6004 4.7998C19.396 4.7998 20.1591 5.11588 20.7217 5.67848C21.2843 6.24109 21.6004 7.00416 21.6004 7.7998V17.3998C21.6004 18.1955 21.2843 18.9585 20.7217 19.5211C20.1591 20.0837 19.396 20.3998 18.6004 20.3998H5.40039C4.60474 20.3998 3.84168 20.0837 3.27907 19.5211C2.71646 18.9585 2.40039 18.1955 2.40039 17.3998V7.7998C2.40039 7.00416 2.71646 6.24109 3.27907 5.67848C3.84168 5.11588 4.60474 4.7998 5.40039 4.7998H18.6004ZM20.4004 9.553L12.3052 14.317C12.2287 14.3619 12.1431 14.3893 12.0547 14.3972C11.9663 14.4051 11.8773 14.3933 11.794 14.3626L11.6956 14.317L3.60039 9.5554V17.3998C3.60039 17.8772 3.79003 18.335 4.1276 18.6726C4.46516 19.0102 4.923 19.1998 5.40039 19.1998H18.6004C19.0778 19.1998 19.5356 19.0102 19.8732 18.6726C20.2107 18.335 20.4004 17.8772 20.4004 17.3998V9.553ZM18.6004 5.9998H5.40039C4.923 5.9998 4.46516 6.18945 4.1276 6.52701C3.79003 6.86458 3.60039 7.32242 3.60039 7.7998V8.1622L12.0004 13.1038L20.4004 8.15981V7.7998C20.4004 7.32242 20.2107 6.86458 19.8732 6.52701C19.5356 6.18945 19.0778 5.9998 18.6004 5.9998Z" fill="black"/>
</svg>
