<svg width="37" height="37" viewBox="0 0 37 37" fill="none" xmlns="http://www.w3.org/2000/svg">
<path d="M11.1004 7.39995C11.1004 6.41865 11.4902 5.47754 12.1841 4.78366C12.878 4.08977 13.8191 3.69995 14.8004 3.69995H25.9004C26.8817 3.69995 27.8228 4.08977 28.5167 4.78366C29.2106 5.47754 29.6004 6.41865 29.6004 7.39995V17.0329C27.8576 16.5381 26.0143 16.5176 24.261 16.9735C22.5076 17.4295 20.9078 18.3452 19.6267 19.6263C18.3457 20.9073 17.4299 22.5072 16.974 24.2605C16.5181 26.0139 16.5386 27.8572 17.0333 29.6H14.8004C13.8191 29.6 12.878 29.2101 12.1841 28.5162C11.4902 27.8224 11.1004 26.8813 11.1004 25.9V7.39995ZM18.9758 33.3C18.5047 32.7293 18.0971 32.109 17.7604 31.45H13.8754C12.6488 31.45 11.4724 30.9627 10.605 30.0953C9.73767 29.228 9.25039 28.0516 9.25039 26.825V7.89575C8.68793 8.22049 8.22086 8.68755 7.89612 9.25C7.57138 9.81246 7.40041 10.4505 7.40039 11.1V26.825C7.40039 28.5422 8.08258 30.1892 9.29687 31.4035C10.5112 32.6178 12.1581 33.3 13.8754 33.3H18.9758ZM35.1504 26.825C35.1504 29.0329 34.2733 31.1504 32.7121 32.7116C31.1508 34.2729 29.0333 35.15 26.8254 35.15C24.6175 35.15 22.5 34.2729 20.9387 32.7116C19.3775 31.1504 18.5004 29.0329 18.5004 26.825C18.5004 24.617 19.3775 22.4995 20.9387 20.9383C22.5 19.377 24.6175 18.5 26.8254 18.5C29.0333 18.5 31.1508 19.377 32.7121 20.9383C34.2733 22.4995 35.1504 24.617 35.1504 26.825ZM27.7504 23.125C27.7504 22.8796 27.6529 22.6443 27.4795 22.4709C27.306 22.2974 27.0707 22.2 26.8254 22.2C26.5801 22.2 26.3448 22.2974 26.1713 22.4709C25.9978 22.6443 25.9004 22.8796 25.9004 23.125V25.9H23.1254C22.8801 25.9 22.6448 25.9974 22.4713 26.1709C22.2978 26.3443 22.2004 26.5796 22.2004 26.825C22.2004 27.0703 22.2978 27.3056 22.4713 27.479C22.6448 27.6525 22.8801 27.75 23.1254 27.75H25.9004V30.525C25.9004 30.7703 25.9978 31.0056 26.1713 31.179C26.3448 31.3525 26.5801 31.45 26.8254 31.45C27.0707 31.45 27.306 31.3525 27.4795 31.179C27.6529 31.0056 27.7504 30.7703 27.7504 30.525V27.75H30.5254C30.7707 27.75 31.006 27.6525 31.1795 27.479C31.3529 27.3056 31.4504 27.0703 31.4504 26.825C31.4504 26.5796 31.3529 26.3443 31.1795 26.1709C31.006 25.9974 30.7707 25.9 30.5254 25.9H27.7504V23.125Z" fill="black"/>
</svg>
