<svg width="35" height="35" viewBox="0 0 35 35" fill="none" xmlns="http://www.w3.org/2000/svg">
<path d="M10.9375 2.1875C11.2276 2.1875 11.5058 2.30273 11.7109 2.50785C11.916 2.71297 12.0312 2.99117 12.0312 3.28125V4.375H16.4062V3.28125C16.4062 2.99117 16.5215 2.71297 16.7266 2.50785C16.9317 2.30273 17.2099 2.1875 17.5 2.1875C17.7901 2.1875 18.0683 2.30273 18.2734 2.50785C18.4785 2.71297 18.5938 2.99117 18.5938 3.28125V4.375H22.9688V3.28125C22.9688 2.99117 23.084 2.71297 23.2891 2.50785C23.4942 2.30273 23.7724 2.1875 24.0625 2.1875C24.3526 2.1875 24.6308 2.30273 24.8359 2.50785C25.041 2.71297 25.1562 2.99117 25.1562 3.28125V4.375C26.0265 4.375 26.8611 4.7207 27.4764 5.33606C28.0918 5.95141 28.4375 6.78601 28.4375 7.65625V13.2037C27.6533 13.3401 26.9074 13.643 26.25 14.0919V7.65625C26.25 7.36617 26.1348 7.08797 25.9296 6.88285C25.7245 6.67773 25.4463 6.5625 25.1562 6.5625H9.84375C9.55367 6.5625 9.27547 6.67773 9.07035 6.88285C8.86523 7.08797 8.75 7.36617 8.75 7.65625V29.5312C8.75 29.8213 8.86523 30.0995 9.07035 30.3046C9.27547 30.5098 9.55367 30.625 9.84375 30.625H13.2278V30.6294C13.0412 31.3541 13.0934 32.1197 13.3766 32.8125H9.84375C8.97351 32.8125 8.13891 32.4668 7.52356 31.8514C6.9082 31.2361 6.5625 30.4015 6.5625 29.5312V7.65625C6.5625 6.78601 6.9082 5.95141 7.52356 5.33606C8.13891 4.7207 8.97351 4.375 9.84375 4.375V3.28125C9.84375 2.99117 9.95898 2.71297 10.1641 2.50785C10.3692 2.30273 10.6474 2.1875 10.9375 2.1875ZM21.875 17.5C22.1091 17.5 22.3256 17.5744 22.505 17.6991L20.5144 19.6875H13.125C12.8349 19.6875 12.5567 19.5723 12.3516 19.3671C12.1465 19.162 12.0312 18.8838 12.0312 18.5938C12.0312 18.3037 12.1465 18.0255 12.3516 17.8204C12.5567 17.6152 12.8349 17.5 13.125 17.5H21.875ZM15.3038 25.0141C15.2692 24.7508 15.1401 24.509 14.9405 24.3339C14.7408 24.1589 14.4843 24.0624 14.2188 24.0625H13.125C12.8349 24.0625 12.5567 24.1777 12.3516 24.3829C12.1465 24.588 12.0312 24.8662 12.0312 25.1562C12.0312 25.4463 12.1465 25.7245 12.3516 25.9296C12.5567 26.1348 12.8349 26.25 13.125 26.25H14.2188C14.3354 26.2503 14.4514 26.2318 14.5622 26.1953C14.7744 25.7819 15.0216 25.3859 15.3038 25.0141ZM13.125 10.9375C12.8349 10.9375 12.5567 11.0527 12.3516 11.2579C12.1465 11.463 12.0312 11.7412 12.0312 12.0312C12.0312 12.3213 12.1465 12.5995 12.3516 12.8046C12.5567 13.0098 12.8349 13.125 13.125 13.125H21.875C22.1651 13.125 22.4433 13.0098 22.6484 12.8046C22.8535 12.5995 22.9688 12.3213 22.9688 12.0312C22.9688 11.7412 22.8535 11.463 22.6484 11.2579C22.4433 11.0527 22.1651 10.9375 21.875 10.9375H13.125ZM26.9894 16.3078C27.6296 15.6676 28.4979 15.3079 29.4033 15.3079C30.3087 15.3079 31.177 15.6676 31.8172 16.3078C32.4574 16.948 32.8171 17.8163 32.8171 18.7217C32.8171 19.6271 32.4574 20.4954 31.8172 21.1356L22.435 30.5156C21.6567 31.2945 20.6813 31.8473 19.6131 32.1147L16.9641 32.7775C16.7404 32.8336 16.5061 32.8307 16.2838 32.7692C16.0616 32.7077 15.8591 32.5897 15.6961 32.4267C15.5331 32.2637 15.4151 32.0612 15.3536 31.839C15.2921 31.6168 15.2893 31.3824 15.3453 31.1588L16.0103 28.5119C16.2772 27.4422 16.8284 26.4666 17.6072 25.69L26.9894 16.3078Z" fill="white"/>
</svg>
