<svg width="37" height="41" viewBox="0 0 37 41" fill="none" xmlns="http://www.w3.org/2000/svg">
<rect x="0.5" y="22.5" width="18" height="18" rx="1.5" stroke="white"/>
<path d="M15.1663 38.6665H3.83301V37.3332C3.83301 35.4922 5.41867 33.9998 7.37467 33.9998H11.6247C13.5807 33.9998 15.1663 35.4922 15.1663 37.3332V38.6665ZM9.49967 32.6665C7.15246 32.6665 5.24967 30.8756 5.24967 28.6665C5.24967 26.4574 7.15246 24.6665 9.49967 24.6665C11.8469 24.6665 13.7497 26.4574 13.7497 28.6665C13.7497 30.8756 11.8469 32.6665 9.49967 32.6665Z" fill="white"/>
<path d="M28.5 33.3298L32.0061 29.8237L33.0078 30.8255L28.5 35.3333L23.9922 30.8255L24.9939 29.8237L28.5 33.3298Z" fill="white"/>
</svg>
