<svg width="52" height="52" viewBox="0 0 52 52" fill="none" xmlns="http://www.w3.org/2000/svg">
<path fill-rule="evenodd" clip-rule="evenodd" d="M34.6673 19.4997C34.6673 21.7982 33.7542 24.0026 32.1289 25.6279C30.5036 27.2533 28.2992 28.1663 26.0007 28.1663C23.7021 28.1663 21.4977 27.2533 19.8724 25.6279C18.2471 24.0026 17.334 21.7982 17.334 19.4997C17.334 17.2011 18.2471 14.9967 19.8724 13.3714C21.4977 11.7461 23.7021 10.833 26.0007 10.833C28.2992 10.833 30.5036 11.7461 32.1289 13.3714C33.7542 14.9967 34.6673 17.2011 34.6673 19.4997ZM30.334 19.4997C30.334 20.6489 29.8774 21.7511 29.0648 22.5638C28.2521 23.3765 27.1499 23.833 26.0007 23.833C24.8514 23.833 23.7492 23.3765 22.9365 22.5638C22.1239 21.7511 21.6673 20.6489 21.6673 19.4997C21.6673 18.3504 22.1239 17.2482 22.9365 16.4355C23.7492 15.6229 24.8514 15.1663 26.0007 15.1663C27.1499 15.1663 28.2521 15.6229 29.0648 16.4355C29.8774 17.2482 30.334 18.3504 30.334 19.4997Z" fill="#8E0200"/>
<path fill-rule="evenodd" clip-rule="evenodd" d="M26.0003 2.1665C12.8378 2.1665 2.16699 12.8373 2.16699 25.9998C2.16699 39.1623 12.8378 49.8332 26.0003 49.8332C39.1628 49.8332 49.8337 39.1623 49.8337 25.9998C49.8337 12.8373 39.1628 2.1665 26.0003 2.1665ZM6.50033 25.9998C6.50033 30.5282 8.04516 34.6968 10.6343 38.0075C12.4527 35.6196 14.7984 33.6845 17.4884 32.3532C20.1784 31.0219 23.1398 30.3306 26.1412 30.3332C29.1037 30.3304 32.0278 31.0038 34.6907 32.3022C37.3535 33.6006 39.6849 35.4897 41.5072 37.8255C43.3845 35.3633 44.6485 32.4895 45.1946 29.4418C45.7407 26.3941 45.5533 23.2602 44.6477 20.2993C43.7422 17.3384 42.1446 14.6358 39.9872 12.4149C37.8298 10.1941 35.1745 8.51887 32.2412 7.52794C29.3078 6.53701 26.1806 6.25884 23.1184 6.71645C20.0561 7.17405 17.1469 8.35427 14.6313 10.1595C12.1158 11.9646 10.0662 14.3429 8.65232 17.0974C7.23839 19.852 6.50072 22.9036 6.50033 25.9998ZM26.0003 45.4998C21.5239 45.5066 17.1826 43.9666 13.711 41.1405C15.1083 39.1401 16.9682 37.5068 19.1324 36.3797C21.2966 35.2525 23.701 34.6648 26.1412 34.6665C28.5508 34.6646 30.9262 35.2376 33.07 36.3379C35.2138 37.4383 37.0641 39.0342 38.4673 40.9932C34.9688 43.911 30.5559 45.5062 26.0003 45.4998Z" fill="#8E0200"/>
</svg>
