<svg width="24" height="24" viewBox="0 0 24 24" fill="none" xmlns="http://www.w3.org/2000/svg">
<path d="M12.5 12C15 12 17 14 17 16.5C17 17.38 16.75 18.21 16.31 18.9L19.39 22L18 23.39L14.88 20.32C14.19 20.75 13.37 21 12.5 21C10 21 8 19 8 16.5C8 14 10 12 12.5 12ZM12.5 14C11.837 14 11.2011 14.2634 10.7322 14.7322C10.2634 15.2011 10 15.837 10 16.5C10 17.163 10.2634 17.7989 10.7322 18.2678C11.2011 18.7366 11.837 19 12.5 19C13.163 19 13.7989 18.7366 14.2678 18.2678C14.7366 17.7989 15 17.163 15 16.5C15 15.837 14.7366 15.2011 14.2678 14.7322C13.7989 14.2634 13.163 14 12.5 14ZM2 3H16C17.11 3 18 3.89 18 5V13.03C17.5 12.23 16.81 11.54 16 11V5H2V19H6.5C6.81 19.75 7.26 20.42 7.81 21H2C0.89 21 0 20.11 0 19V5C0 3.89 0.89 3 2 3ZM4 7H14V9H4V7ZM4 11H9.03C8.23 11.5 7.54 12.19 7 13H4V11ZM4 15H6.17C6.06 15.5 6 16 6 16.5V17H4V15Z" fill="#db0404"/>
</svg>
