<svg width="25" height="25" viewBox="0 0 25 25" fill="none" xmlns="http://www.w3.org/2000/svg">
<path d="M9.70985 3.16167C9.66175 3.16167 9.61346 3.16314 9.56483 3.16626C8.78773 3.21582 8.00008 3.72944 7.7201 4.48154C6.05643 8.95088 5.22571 10.7738 4.71717 15.3642C5.43167 16.0229 6.2616 16.6557 7.17078 17.2257L10.4133 7.63262L11.2769 7.92402L7.97332 17.7002C8.92596 18.2313 9.94744 18.6882 11.0007 19.0323L14.6826 9.19194L15.5371 9.51079L11.8781 19.2902C12.828 19.539 13.7924 19.6906 14.7482 19.7235L18.621 11.0108L19.4557 11.3816L15.7509 19.7144C16.8163 19.654 17.8605 19.4328 18.8484 19.0171C20.9635 16.388 22.3949 13.6566 22.9743 10.585C23.223 9.26704 22.2535 7.99107 20.3269 7.90874L20.0264 7.89497L19.9195 7.61421C19.5069 6.52105 18.9552 6.14483 18.3814 6.02876C17.8077 5.91275 17.1477 6.10371 16.6496 6.38892L16.0117 6.75366L15.9675 6.02124C15.9191 5.22066 15.4624 4.57608 14.7803 4.28169C14.0982 3.98726 13.1659 4.02622 12.1039 4.76538L11.5943 5.11939L11.4081 4.52734C11.0899 3.51338 10.4312 3.16089 9.70989 3.16162L9.70985 3.16167ZM5.04363 9.19653C3.47444 11.3989 2.33113 14.627 2.51077 17.5614C3.8555 18.6278 5.17728 19.2065 6.4201 19.2917C7.11126 19.3391 7.78436 19.2388 8.44183 18.9774C6.71111 18.1358 5.15276 17.0471 3.92064 15.8753L3.7574 15.7212L3.78182 15.4968C4.06473 12.829 4.46277 11.0291 5.04373 9.19653H5.04363Z" fill="#F0C193"/>
</svg>
