<svg width="25" height="25" viewBox="0 0 25 25" fill="none" xmlns="http://www.w3.org/2000/svg">
<path d="M14.374 2.5455C13.4978 2.54873 12.6271 2.63505 11.7917 2.77724C7.55696 3.49795 5.17 5.38794 3.88201 8.04209C5.40618 7.92324 6.90945 7.79677 8.37253 7.80585C9.54998 7.81318 10.7014 7.90825 11.8169 8.16572C12.5566 8.33662 13.0206 8.97856 13.1649 9.71528C13.3091 10.452 13.2068 11.3227 12.918 12.2325L12.904 12.2767L12.8812 12.317C12.5022 12.983 11.6965 13.5132 10.6695 14.0745C9.64255 14.6359 8.38948 15.1826 7.1407 15.6579C5.89197 16.1332 4.64988 16.5358 3.64583 16.8023C3.29163 16.8963 2.96956 16.9722 2.6822 17.0297C2.79329 18.5497 3.00261 20.1244 3.26853 21.7162C10.1102 19.8485 16.623 17.8154 22.9712 15.6979C24.2375 13.5272 24.4324 11.4769 23.7996 9.50976C22.7062 6.11108 20.826 4.28281 18.6622 3.34921C17.3098 2.76572 15.8344 2.54013 14.3741 2.5455H14.374ZM6.35584 8.75048C5.91345 8.77539 5.46399 8.80693 5.0115 8.84013L2.89519 16.0835C3.06043 16.045 3.23386 16.0023 3.42029 15.9529C3.62705 15.8976 3.83312 15.8397 4.03845 15.7793C4.52781 14.2623 6.15271 9.36255 6.35584 8.75048ZM4.07556 8.90976C3.5449 8.95009 3.00994 8.99052 2.46873 9.02548C2.4531 9.04721 2.43386 9.07172 2.40437 9.13618C2.32722 9.30463 2.23958 9.59604 2.16453 9.95278C2.01438 10.6663 1.90232 11.6484 1.83713 12.6323C1.77205 13.6162 1.75266 14.6068 1.77888 15.3463C1.79197 15.716 1.81746 16.0252 1.84929 16.2232C1.85164 16.2382 1.8531 16.2385 1.85564 16.252C1.8781 16.2516 1.90608 16.2499 1.93113 16.2489L4.07556 8.90976ZM10.9367 8.93579C10.1752 8.93579 9.53728 9.55014 9.53728 10.3104C9.53728 11.0706 10.1752 11.6852 10.9367 11.6852C11.6982 11.6852 12.3361 11.0707 12.3361 10.3104C12.3361 9.55014 11.6982 8.93579 10.9367 8.93579ZM10.9367 9.81469C11.2355 9.81469 11.4572 10.0377 11.4572 10.3104C11.4572 10.5831 11.2355 10.8062 10.9367 10.8062C10.6379 10.8062 10.4162 10.5831 10.4162 10.3104C10.4162 10.0377 10.6379 9.81469 10.9367 9.81469ZM22.1764 16.8882C16.1312 18.8895 9.92522 20.8123 3.4198 22.5862C3.43997 22.6993 3.45935 22.8123 3.47996 22.9254C10.6873 21.6242 15.9787 19.558 21.6128 17.5952C21.8077 17.3652 21.9957 17.1294 22.1765 16.8881L22.1764 16.8882Z" fill="#A7A6A4"/>
</svg>
