<svg width="25" height="25" viewBox="0 0 25 25" fill="none" xmlns="http://www.w3.org/2000/svg">
<path d="M12.848 15.7422C12.848 15.7422 11.6195 17.3789 11.3461 17.7109C11.0726 18.043 10.3715 18.8027 10.059 18.998C9.74646 19.1934 9.62927 19.543 6.25818 19.543C3.60779 19.543 2.63318 19.25 1.44373 19.25C0.517944 19.25 0.742554 20.8672 0.859741 21.2383C0.976929 21.6094 1.67615 22.8457 3.0238 23.0898C4.26404 23.3164 5.62146 23.168 7.54724 22.8555C9.1449 22.5957 10.5062 22.25 11.1312 21.8398C11.7289 21.4473 12.4027 20.2422 12.7523 19.6973C13.1019 19.1523 14.5258 16.9297 14.5258 16.9297L14.5062 16.4805L12.848 15.7422Z" fill="#FFA828"/>
<path d="M13.4242 15.7871C13.391 15.8672 11.0297 18.9004 10.8246 19.1406C10.6195 19.3809 10.2777 19.6992 10.3344 20.168C10.391 20.6348 10.8227 20.7598 11.1293 20.6504C11.6762 20.457 11.8285 20.0078 12.1254 19.6191C12.3285 19.3535 14.4984 16.2324 14.4984 16.2324L13.4242 15.7871Z" fill="#F08A34"/>
<path d="M12.7852 15.8223L14.793 13.0156L16.3594 14.1289L14.4395 17.0645L12.7852 15.8223Z" fill="#5D6365"/>
<path d="M14.082 14.0059L15.6641 15.1934L14.9863 16.25L13.3418 15.0352L14.082 14.0059Z" fill="#DFE0E0"/>
<path d="M14.6406 13.2187L16.1914 14.3926L22.5195 4.87891L21.1621 3.96875L14.6406 13.2187Z" fill="#FC2929"/>
<path d="M22.4199 1.49787C22.0586 1.52522 21.584 2.44905 21.5664 2.55061C21.5313 2.74592 21.9004 2.91389 21.9004 2.91389L20.9863 4.22444L22.334 5.14631L23.2383 3.84553C23.2383 3.84553 23.5117 4.03889 23.6523 3.94319C23.7988 3.84358 24.4004 2.99397 24.3652 2.75569C24.3359 2.56037 22.7188 1.47639 22.4199 1.49787Z" fill="#5E6367"/>
<path d="M18.3723 20.2441L15.8313 20.6836C15.8313 20.6836 15.7552 21.0469 15.7747 21.8105C15.7942 22.5742 15.9075 22.8418 15.9075 22.8418C15.9075 22.8418 16.4524 24.0293 19.1048 24.0684C21.9856 24.1113 22.597 22.8613 22.597 22.8613C22.597 22.8613 22.7141 22.2344 22.7141 21.7578C22.7141 21.4512 22.7024 20.7422 22.636 20.6523C22.4466 20.4043 18.3723 20.2441 18.3723 20.2441Z" fill="#9A9A9A"/>
<path d="M19.1429 19.1093C16.7952 19.0858 15.8128 20.1015 15.8323 20.6835C15.846 21.1386 16.7386 22.3222 19.2893 22.3632C22.0589 22.4081 22.6429 20.8769 22.6507 20.6542C22.6565 20.3944 22.0022 19.1366 19.1429 19.1093Z" fill="#5E6367"/>
</svg>
