<svg width="25" height="25" viewBox="0 0 25 25" fill="none" xmlns="http://www.w3.org/2000/svg">
<g clip-path="url(#clip0_158_8685)">
<path d="M12.5 24.2441C18.9872 24.2441 24.2461 18.9861 24.2461 12.5C24.2461 6.01389 18.9872 0.755859 12.5 0.755859C6.01281 0.755859 0.753906 6.01389 0.753906 12.5C0.753906 18.9861 6.01281 24.2441 12.5 24.2441Z" fill="white"/>
<path d="M17.3203 12.3556C16.8652 12.2912 16.4609 12.6544 16.1055 12.883C15.3379 13.3732 14.6602 13.9416 14.0059 14.5822C13.6016 14.9787 13.0547 15.506 12.9102 16.0763C12.8437 16.34 12.9258 16.6427 12.9785 16.9005C13.0703 17.3498 13.2109 17.7873 13.3516 18.2228C13.5105 18.7123 13.6943 19.1934 13.9023 19.6642C14.0059 19.9005 14.1191 20.1349 14.2305 20.3693C14.334 20.588 14.4023 20.7169 14.6562 20.7501C14.9414 20.7873 15.2266 20.7443 15.5098 20.7326C15.9277 20.7169 16.3457 20.6759 16.7578 20.6056C17.3027 20.5138 17.8516 20.4142 18.373 20.2287C18.8555 20.0548 19.4082 19.7853 19.6875 19.3419C20.2871 18.3888 20.6504 17.3068 20.8496 16.2033C20.9082 15.8849 20.9648 15.5607 20.9629 15.2345C20.9648 14.9474 20.9902 14.6525 20.7832 14.4318C20.4121 14.0333 19.9727 13.7033 19.5176 13.4044C18.8437 12.9669 18.1387 12.4728 17.3203 12.3556ZM4.06836 7.75015C3.64453 7.97476 3.3125 8.50991 3.06445 8.90249C2.56836 9.68374 2.16797 10.5861 1.98047 11.4943C1.83789 12.1896 2.14844 12.8673 2.38086 13.5099C2.60742 14.1291 3.00195 14.6193 3.43359 15.1056C3.54297 15.2306 3.68164 15.3244 3.79101 15.4474C3.91601 15.5861 4.07422 15.7169 4.23828 15.8087C4.35547 15.8751 4.46094 15.7853 4.58008 15.758C4.89453 15.6818 5.1289 15.5216 5.41406 15.3712C5.66992 15.2345 5.93359 15.1193 6.1914 14.9826C6.74414 14.6857 7.40234 14.4416 7.88476 14.0333C7.94726 13.9806 8.02929 13.9142 8.04687 13.8302C8.09179 13.6212 8.0293 13.3498 8.01953 13.1369C8.00781 12.838 8.0039 12.5412 8.00195 12.2423C8 11.5666 8.02539 10.8908 8.02539 10.215C8.03125 9.83804 8.07812 9.46304 8.06054 9.08608C8.02929 8.52554 7.42383 8.32632 6.96875 8.21304C6.33008 8.05483 5.6875 7.83804 5.03515 7.75796C4.76562 7.72866 4.32031 7.61733 4.06836 7.75015ZM20.6484 6.0646C20.709 5.64077 20.4258 5.13101 20.2207 4.7521C19.8145 3.99624 19.2324 3.25405 18.5059 2.66421C17.9512 2.21304 17.1348 2.02944 16.375 1.95327C15.0137 1.8146 13.9746 1.89858 13.6875 1.94351C13.3984 1.98843 13.127 2.07632 12.9727 2.26773C12.668 2.63882 12.6152 3.17007 12.5508 3.6271C12.457 4.27944 12.375 4.95132 12.4609 5.60757C12.4746 5.72476 12.4922 5.87905 12.5488 5.98257C12.6562 6.17397 12.8828 6.26968 13.1074 6.36929C14.2715 6.88296 16.4922 8.15444 16.8535 8.32632C17.3926 8.58608 17.9668 8.24038 18.3652 7.96108C18.918 7.57241 19.5332 7.20718 20.0215 6.76773C20.2227 6.58804 20.6113 6.3146 20.6484 6.0646ZM3.92773 20.5939C3.97461 20.6662 4.01953 20.7209 4.0918 20.7755C4.20703 20.8634 4.3164 20.9533 4.42578 21.049C5.38086 21.8869 6.5 22.5177 7.60937 23.1232C7.94336 23.3068 8.26172 23.4943 8.60156 23.6642C8.96875 23.8459 9.34765 23.9689 9.74219 24.0783C10.0098 24.1525 10.2812 24.2248 10.5586 24.2521C10.8164 24.2775 11.0801 24.338 11.3398 24.3419C11.4883 24.3439 11.625 24.338 11.7695 24.3185C11.6992 24.2052 11.6367 24.0607 11.5762 23.9396C11.4805 23.7501 11.3828 23.5587 11.2852 23.3712C11.1719 23.1544 11.084 22.9279 10.9687 22.713C10.8789 22.549 10.7617 22.3791 10.5996 22.2833C10.3828 22.1544 10.1758 22.0275 9.93945 21.9318C9.07617 21.5802 8.30273 21.0841 7.5 20.6193C7.09375 20.383 6.69531 20.131 6.3125 19.8556C6.10742 19.7091 5.9082 19.5568 5.6914 19.4259C5.64648 19.3966 5.60156 19.3615 5.54883 19.3537C5.50195 19.3458 5.42969 19.3478 5.38281 19.3537C5.33984 19.3595 5.28906 19.3673 5.24805 19.3751C4.9668 19.4337 4.66211 19.508 4.37109 19.5724C4.09375 19.6349 3.7832 19.6564 3.51758 19.758C3.41406 19.797 3.42578 19.8556 3.46679 19.9455C3.52929 20.0861 3.62109 20.215 3.7168 20.3322C3.78125 20.4162 3.86133 20.4943 3.92773 20.5939Z" fill="#FCDE3E"/>
<path d="M7.30665 9.4374C7.24052 9.43745 7.17571 9.41879 7.11973 9.38357C7.06375 9.34836 7.01887 9.29802 6.99027 9.23839C6.96168 9.17875 6.95054 9.11224 6.95814 9.04654C6.96574 8.98084 6.99176 8.91863 7.03322 8.86709C7.12892 8.7499 9.38283 5.98818 13.4141 5.36318C13.4595 5.35626 13.5058 5.35834 13.5504 5.36932C13.595 5.38029 13.637 5.39995 13.674 5.42715C13.711 5.45435 13.7422 5.48858 13.766 5.52787C13.7898 5.56716 13.8056 5.61075 13.8125 5.65615C13.8194 5.70155 13.8174 5.74787 13.8064 5.79246C13.7954 5.83705 13.7758 5.87905 13.7485 5.91605C13.7213 5.95305 13.6871 5.98432 13.6478 6.00809C13.6085 6.03187 13.5649 6.04767 13.5195 6.05459C9.76759 6.63858 7.59962 9.28115 7.57814 9.30654C7.50783 9.39248 7.40822 9.4374 7.30665 9.4374ZM6.47462 21.6991C6.37306 21.6991 6.2715 21.6562 6.20314 21.5702C6.10744 21.453 3.88673 18.664 4.12697 14.5937C4.13868 14.4003 4.30275 14.2519 4.49611 14.2636C4.68947 14.2753 4.83595 14.4413 4.82423 14.6347C4.60158 18.4374 6.72462 21.1034 6.74611 21.1288C6.86915 21.2792 6.84376 21.4999 6.69533 21.621C6.63087 21.6718 6.55275 21.6991 6.47462 21.6991ZM9.11525 23.0741C8.93556 23.0741 8.78322 22.9374 8.76759 22.7538C8.75197 22.5604 8.89454 22.3905 9.0879 22.3749C9.12111 22.3729 12.5235 22.0526 15.1055 19.2675C15.169 19.1995 15.2569 19.1595 15.3499 19.1562C15.4429 19.1529 15.5334 19.1866 15.6016 19.2499C15.7442 19.3808 15.752 19.6034 15.6192 19.746C12.8457 22.7343 9.29494 23.0604 9.1465 23.0741C9.13478 23.0722 9.12501 23.0741 9.11525 23.0741ZM4.25001 9.01748C4.08595 9.01748 3.93947 8.90225 3.90822 8.73428C3.88869 8.63662 3.44728 6.32217 4.39845 3.57998C4.4629 3.39639 4.66017 3.29873 4.84376 3.36318C5.0254 3.42764 5.12306 3.6249 5.06056 3.8085C4.16994 6.3749 4.58986 8.57607 4.59572 8.59951C4.63283 8.78897 4.50978 8.97451 4.31837 9.01162C4.29689 9.01553 4.27345 9.01748 4.25001 9.01748ZM14.4277 3.27334C14.3555 3.27334 14.2813 3.2499 14.2207 3.20303C14.2031 3.19131 12.3809 1.86904 9.69142 1.57412C9.50001 1.55459 9.35939 1.38076 9.38087 1.18936C9.4004 0.995997 9.57423 0.859278 9.76564 0.878809C12.6524 1.19326 14.5547 2.57998 14.6348 2.63857C14.7891 2.75381 14.8223 2.97256 14.707 3.12881C14.6406 3.22451 14.5352 3.27334 14.4277 3.27334ZM23.2676 8.97061C23.166 8.97061 23.0645 8.92568 22.9942 8.83975C21.2871 6.72842 19.1973 5.91787 19.1777 5.91006C19.0909 5.87722 19.0205 5.81133 18.9821 5.72679C18.9437 5.64225 18.9403 5.54593 18.9727 5.45889C19.041 5.27725 19.2442 5.1874 19.4238 5.25381C19.5176 5.28897 21.7129 6.14053 23.5371 8.39834C23.6602 8.54873 23.6348 8.76943 23.4844 8.89053C23.4219 8.94522 23.3438 8.97061 23.2676 8.97061ZM17.086 13.705C17.0723 13.705 17.0547 13.703 17.041 13.7011C16.9954 13.6952 16.9515 13.6804 16.9116 13.6574C16.8718 13.6345 16.8369 13.6039 16.8089 13.5674C16.781 13.5309 16.7605 13.4892 16.7487 13.4448C16.7369 13.4004 16.734 13.354 16.7402 13.3085C17.1875 9.96084 16.7481 7.48818 16.7422 7.46279C16.707 7.27334 16.832 7.08975 17.0235 7.05654C17.2149 7.01943 17.3965 7.14834 17.4317 7.33779C17.4492 7.44326 17.8965 9.94522 17.4336 13.4022C17.4102 13.578 17.2598 13.705 17.086 13.705ZM14.0469 16.5644C14.0352 16.5644 14.0274 16.5644 14.0156 16.5624C9.66408 16.1776 6.80079 13.7226 6.6797 13.619C6.60981 13.558 6.56689 13.4718 6.5603 13.3792C6.55372 13.2867 6.584 13.1952 6.64454 13.1249C6.7715 12.9784 6.9922 12.9628 7.13869 13.0897C7.16798 13.1132 9.96095 15.5019 14.0781 15.8651C14.1677 15.8736 14.2505 15.9162 14.3095 15.984C14.3685 16.0519 14.3992 16.1398 14.3952 16.2296C14.3912 16.3194 14.3528 16.4043 14.2879 16.4666C14.2231 16.5289 14.1368 16.5639 14.0469 16.5644ZM1.54884 12.5507C1.25392 12.5507 0.931654 12.5136 0.630873 12.3983C0.544005 12.3655 0.47367 12.2996 0.435242 12.2151C0.396813 12.1305 0.393417 12.0342 0.425795 11.9472C0.496107 11.7675 0.695326 11.6757 0.87892 11.7421C1.52345 11.9882 2.38478 11.7362 2.39454 11.7343C2.57814 11.6796 2.77345 11.7831 2.82814 11.9706C2.88478 12.1542 2.77931 12.3495 2.59572 12.4062C2.56642 12.414 2.10548 12.5507 1.54884 12.5507ZM20.6387 15.539C20.5059 15.539 20.3809 15.4628 20.3223 15.3358C20.2402 15.162 20.3184 14.953 20.4922 14.871C20.5117 14.8612 22.5469 13.8983 24.0957 11.6796C24.2051 11.5194 24.4238 11.4804 24.582 11.5917C24.7402 11.703 24.7793 11.9198 24.6699 12.078C23.0098 14.4589 20.877 15.4628 20.7871 15.5058C20.7363 15.5272 20.6875 15.539 20.6387 15.539ZM20.6387 21.4511C20.5606 21.4511 20.4824 21.4257 20.416 21.3749C19.6152 20.744 18.8399 19.5976 18.8067 19.5507C18.6973 19.3866 18.7402 19.164 18.9043 19.0526C19.0664 18.9433 19.291 18.9862 19.4004 19.1522C19.4082 19.162 20.1465 20.2519 20.8594 20.8124C21.0137 20.9354 21.041 21.1601 20.9199 21.3163C20.8477 21.4022 20.7442 21.4511 20.6387 21.4511Z" fill="#FCDE3E"/>
<path d="M12.5 24.9453C5.63672 24.9453 0.0546875 19.3633 0.0546875 12.5C0.0546875 5.63867 5.63672 0.0546875 12.5 0.0546875C19.3633 0.0546875 24.9453 5.63867 24.9453 12.498C24.9453 19.3633 19.3613 24.9453 12.5 24.9453ZM12.5 1.45508C6.41016 1.45508 1.45508 6.41016 1.45508 12.5C1.45508 18.5898 6.4082 23.5449 12.498 23.5449C18.5879 23.5449 23.543 18.5898 23.543 12.5C23.5449 6.41016 18.5879 1.45508 12.5 1.45508Z" fill="#FCDE3E"/>
</g>
<defs>
<clipPath id="clip0_158_8685">
<rect width="25" height="25" fill="white"/>
</clipPath>
</defs>
</svg>
