<svg width="25" height="24" viewBox="0 0 25 24" fill="none" xmlns="http://www.w3.org/2000/svg">
<path d="M13.2907 1.35563L15.9196 7.11187C16.0185 7.32851 16.1761 7.51569 16.3761 7.65388C16.576 7.79207 16.811 7.8762 17.0563 7.8975L23.4606 8.44875C24.1852 8.55 24.4743 9.40312 23.9489 9.89437L19.1247 13.785C18.7341 14.1 18.5563 14.595 18.6637 15.0731L20.0661 21.375C20.1891 22.0669 19.4333 22.5956 18.7848 22.2675L13.195 19.125C12.9842 19.0062 12.7441 18.9436 12.4997 18.9436C12.2552 18.9436 12.0152 19.0062 11.8044 19.125L6.21453 22.2656C5.56804 22.5919 4.81023 22.065 4.93328 21.3731L6.33562 15.0712C6.44109 14.5931 6.26531 14.0981 5.87468 13.7831L1.04851 9.89625C0.525075 9.40687 0.814138 8.55187 1.53679 8.45062L7.94109 7.89937C8.18647 7.87808 8.42139 7.79394 8.62133 7.65575C8.82128 7.51756 8.97893 7.33038 9.07781 7.11375L11.7067 1.3575C12.0329 0.7275 12.9665 0.7275 13.2907 1.35563Z" fill="#FDD835"/>
<path d="M13.1 7.45672L12.6547 3.21547C12.6371 2.97922 12.5863 2.57422 12.9808 2.57422C13.2933 2.57422 13.4633 3.19859 13.4633 3.19859L14.7992 6.60359C15.3031 7.89922 15.0961 8.34359 14.6097 8.60609C14.0511 8.90609 13.2269 8.67172 13.1 7.45672Z" fill="#FFFF8D"/>
<path d="M18.6087 13.4079L22.4407 10.5373C22.6302 10.3854 22.972 10.1435 22.6985 9.86789C22.4817 9.65039 21.8958 9.96351 21.8958 9.96351L18.5423 11.2216C17.5423 11.5535 16.8782 12.0448 16.8196 12.6635C16.7435 13.4885 17.5149 14.1241 18.6087 13.4079Z" fill="#F4B400"/>
</svg>
