<svg width="34" height="34" viewBox="0 0 34 34" fill="none" xmlns="http://www.w3.org/2000/svg">
<path d="M26.0157 26.0156C30.9949 21.0365 30.9949 12.9636 26.0157 7.98442L28.0192 5.98096C34.1048 12.0666 34.1048 21.9335 28.0192 28.0191L26.0157 26.0156ZM7.98447 7.98442C3.00528 12.9636 3.00528 21.0365 7.98447 26.0156L5.98101 28.0191C-0.104671 21.9335 -0.104671 12.0666 5.98101 5.98096L7.98447 7.98442ZM22.0087 22.0086C24.775 19.2424 24.775 14.7574 22.0087 11.9912L24.0122 9.98773C27.8849 13.8604 27.8849 20.1393 24.0122 24.012L22.0087 22.0086ZM11.9914 11.9912C9.22519 14.7574 9.22519 19.2424 11.9914 22.0086L9.98794 24.012C6.11524 20.1393 6.11524 13.8604 9.98794 9.98773L11.9914 11.9912ZM17.0001 19.8333C18.5649 19.8333 19.8334 18.5648 19.8334 17C19.8334 15.4351 18.5649 14.1666 17.0001 14.1666C15.4352 14.1666 14.1667 15.4351 14.1667 17C14.1667 18.5648 15.4352 19.8333 17.0001 19.8333Z" fill="#70CB7A"/>
</svg>
