<svg width="22" height="22" viewBox="0 0 22 22" fill="none" xmlns="http://www.w3.org/2000/svg">
<path d="M10.1859 2.18506C14.5428 2.18506 18.0789 5.72111 18.0789 10.078C18.0789 14.4349 14.5428 17.971 10.1859 17.971C5.82902 17.971 2.29297 14.4349 2.29297 10.078C2.29297 5.72111 5.82902 2.18506 10.1859 2.18506ZM10.1859 16.217C13.5777 16.217 16.3249 13.4698 16.3249 10.078C16.3249 6.68624 13.5777 3.93905 10.1859 3.93905C6.79415 3.93905 4.04696 6.68624 4.04696 10.078C4.04696 13.4698 6.79415 16.217 10.1859 16.217ZM17.6275 16.2793L20.108 18.7598L18.8678 20.0001L16.3873 17.5196L17.6275 16.2793Z" fill="white"/>
</svg>
