<svg width="24" height="24" viewBox="0 0 24 24" fill="none" xmlns="http://www.w3.org/2000/svg">
<path fill-rule="evenodd" clip-rule="evenodd" d="M16.3939 2.02089L16.4599 2.03889C17.5599 2.33389 18.4309 2.56689 19.1159 2.81489C19.8169 3.06789 20.3889 3.35689 20.8599 3.79789C21.5454 4.44041 22.0249 5.2718 22.2379 6.18689C22.3849 6.81489 22.3499 7.45489 22.2179 8.18789C22.0909 8.90589 21.8579 9.77689 21.5629 10.8759L21.0269 12.8749C20.7329 13.9739 20.4989 14.8449 20.2519 15.5299C19.9979 16.2309 19.7089 16.8029 19.2679 17.2739C18.6463 17.9376 17.8474 18.4089 16.9659 18.6319C16.7076 19.224 16.3313 19.7572 15.8599 20.1989C15.3889 20.6399 14.8169 20.9289 14.1159 21.1829C13.4309 21.4309 12.5599 21.6639 11.4609 21.9589L11.3939 21.9769C10.2939 22.2709 9.42389 22.5039 8.70589 22.6329C7.97289 22.7639 7.33289 22.7989 6.70389 22.6529C5.78892 22.4392 4.95788 21.959 4.31589 21.2729C3.87589 20.8029 3.58589 20.2309 3.33189 19.5299C3.08489 18.8449 2.85189 17.9739 2.55689 16.8739L2.02089 14.8759C1.72689 13.7759 1.49289 12.9059 1.36489 12.1879C1.23389 11.4549 1.19889 10.8149 1.34489 10.1859C1.55858 9.27092 2.03883 8.43988 2.72489 7.79789C3.19489 7.35789 3.76689 7.06789 4.46789 6.81389C5.15289 6.56689 6.02389 6.33389 7.12289 6.03889L7.15689 6.02889L7.90789 5.82889C8.29989 4.42989 8.64389 3.44089 9.31589 2.72389C9.95801 2.0382 10.789 1.5583 11.7039 1.34489C12.3329 1.19889 12.9719 1.23389 13.7059 1.36489C14.4229 1.49289 15.2939 1.72689 16.3939 2.02089ZM7.45489 7.50289C6.36189 7.79589 5.57889 8.00789 4.97689 8.22489C4.36689 8.44489 4.00989 8.64889 3.74989 8.89289C3.28054 9.3322 2.95202 9.90084 2.80589 10.5269C2.72589 10.8749 2.72689 11.2869 2.84189 11.9239C2.95689 12.5709 3.17389 13.3809 3.47889 14.5209L3.99689 16.4529C4.30189 17.5929 4.51989 18.4029 4.74289 19.0199C4.96289 19.6299 5.16689 19.9879 5.41089 20.2479C5.8502 20.7172 6.41884 21.0458 7.04489 21.1919C7.39189 21.2719 7.80489 21.2699 8.44189 21.1559C9.08889 21.0409 9.89889 20.8239 11.0389 20.5189C12.1789 20.2129 12.9889 19.9959 13.6069 19.7719C14.2159 19.5519 14.5739 19.3479 14.8339 19.1049C14.9719 18.9749 15.0969 18.8349 15.2099 18.6859C15.0244 18.6594 14.8396 18.6277 14.6559 18.5909C13.9839 18.4569 13.1759 18.2409 12.1809 17.9739L12.1229 17.9589C11.0239 17.6639 10.1529 17.4309 9.46789 17.1829C8.76689 16.9299 8.19489 16.6409 7.72389 16.1999C7.03803 15.5575 6.55812 14.7261 6.34489 13.8109C6.19889 13.1829 6.23389 12.5429 6.36489 11.8089C6.49289 11.0919 6.72689 10.2209 7.02089 9.12189L7.45489 7.50289ZM13.4419 2.84189C12.8039 2.72689 12.3919 2.72489 12.0449 2.80589C11.4188 2.95202 10.8502 3.28054 10.4109 3.74989C9.97489 4.21489 9.70589 4.93489 9.23989 6.64289C9.16389 6.92089 9.08389 7.21989 8.99689 7.54489L8.47889 9.47689C8.17389 10.6169 7.95689 11.4269 7.84189 12.0739C7.72689 12.7109 7.72489 13.1239 7.80589 13.4709C7.95202 14.0969 8.28054 14.6656 8.74989 15.1049C9.00989 15.3489 9.36789 15.5519 9.97689 15.7729C10.5949 15.9959 11.4049 16.2129 12.5449 16.5189C13.5699 16.7939 14.3299 16.9969 14.9479 17.1189C15.5629 17.2419 15.9809 17.2719 16.3229 17.2299C16.3979 17.2199 16.4689 17.2079 16.5389 17.1919C17.1649 17.0458 17.7336 16.7172 18.1729 16.2479C18.4169 15.9879 18.6209 15.6299 18.8409 15.0209C19.0639 14.4029 19.2809 13.5929 19.5869 12.4529L20.1049 10.5209C20.4099 9.38089 20.6269 8.57089 20.7419 7.92389C20.8559 7.28689 20.8589 6.87389 20.7779 6.52689C20.6318 5.90084 20.3032 5.3322 19.8339 4.89289C19.5739 4.64889 19.2159 4.44589 18.6069 4.22489C17.9879 4.00189 17.1789 3.78489 16.0389 3.47889C14.8989 3.17389 14.0889 2.95689 13.4419 2.84189ZM11.0519 9.80589C11.0774 9.71073 11.1214 9.62154 11.1814 9.54341C11.2414 9.46527 11.3162 9.39972 11.4016 9.3505C11.4869 9.30128 11.5811 9.26936 11.6788 9.25656C11.7765 9.24376 11.8757 9.25033 11.9709 9.27589L16.8009 10.5699C16.9877 10.6261 17.1453 10.7528 17.2402 10.9232C17.3351 11.0936 17.3599 11.2943 17.3092 11.4827C17.2586 11.6711 17.1366 11.8323 16.9691 11.9323C16.8016 12.0322 16.6017 12.0629 16.4119 12.0179L11.5819 10.7239C11.3899 10.6723 11.2263 10.5467 11.1269 10.3746C11.0276 10.2024 11.0006 9.9979 11.0519 9.80589ZM10.2749 12.7039C10.3004 12.6086 10.3445 12.5193 10.4045 12.4411C10.4646 12.3629 10.5395 12.2973 10.625 12.2481C10.7104 12.1988 10.8047 12.167 10.9025 12.1542C11.0003 12.1415 11.0997 12.1482 11.1949 12.1739L14.0919 12.9499C14.284 13.0013 14.4479 13.127 14.5474 13.2993C14.6469 13.4715 14.6738 13.6762 14.6224 13.8684C14.5709 14.0605 14.4453 14.2244 14.273 14.3239C14.1008 14.4234 13.896 14.4503 13.7039 14.3989L10.8059 13.6219C10.6139 13.5703 10.4503 13.4447 10.3509 13.2726C10.2516 13.1004 10.2246 12.8959 10.2759 12.7039H10.2749Z" fill="#db0404"/>
</svg>
