<svg width="24" height="24" viewBox="0 0 24 24" fill="none" xmlns="http://www.w3.org/2000/svg">
<path d="M16.2859 2.57129H18.8573C19.3119 2.57129 19.748 2.7519 20.0695 3.07339C20.391 3.39488 20.5716 3.83092 20.5716 4.28557V21.4284C20.5716 21.8831 20.391 22.3191 20.0695 22.6406C19.748 22.9621 19.3119 23.1427 18.8573 23.1427H5.143C4.68834 23.1427 4.2523 22.9621 3.93081 22.6406C3.60932 22.3191 3.42871 21.8831 3.42871 21.4284V4.28557C3.42871 3.83092 3.60932 3.39488 3.93081 3.07339C4.2523 2.7519 4.68834 2.57129 5.143 2.57129H7.71442" stroke="#db0404" stroke-linecap="round" stroke-linejoin="round"/>
<path d="M14.572 0.856934H9.42913C8.48236 0.856934 7.71484 1.62445 7.71484 2.57122V3.42836C7.71484 4.37514 8.48236 5.14265 9.42913 5.14265H14.572C15.5188 5.14265 16.2863 4.37514 16.2863 3.42836V2.57122C16.2863 1.62445 15.5188 0.856934 14.572 0.856934Z" stroke="#db0404" stroke-linecap="round" stroke-linejoin="round"/>
<path d="M7.71484 9.42822H16.2863M7.71484 13.7139H16.2863M7.71484 17.9997H16.2863" stroke="#db0404" stroke-linecap="round" stroke-linejoin="round"/>
</svg>
