<svg width="25" height="25" viewBox="0 0 25 25" fill="none" xmlns="http://www.w3.org/2000/svg">
<g clip-path="url(#clip0_687_937)">
<path opacity="0.15" d="M2.24023 23.4165C2.24023 23.556 2.50563 23.6942 3.02126 23.8231C3.5369 23.952 4.29267 24.0691 5.24544 24.1678C6.19821 24.2665 7.32931 24.3447 8.57416 24.3981C9.81901 24.4515 11.1532 24.479 12.5007 24.479C13.8481 24.479 15.1823 24.4515 16.4271 24.3981C17.672 24.3447 18.8031 24.2665 19.7559 24.1678C20.7086 24.0691 21.4644 23.952 21.98 23.8231C22.4957 23.6942 22.7611 23.556 22.7611 23.4165C22.7611 23.277 22.4957 23.1388 21.98 23.0099C21.4644 22.881 20.7086 22.7639 19.7559 22.6652C18.8031 22.5665 17.672 22.4883 16.4271 22.4349C15.1823 22.3815 13.8481 22.354 12.5007 22.354C11.1532 22.354 9.81901 22.3815 8.57416 22.4349C7.32931 22.4883 6.19821 22.5665 5.24544 22.6652C4.29267 22.7639 3.5369 22.881 3.02126 23.0099C2.50563 23.1388 2.24023 23.277 2.24023 23.4165Z" fill="#45413C"/>
<path d="M22.9165 2.99472C22.8518 2.77924 22.7347 2.58317 22.5756 2.42409C22.4166 2.26501 22.2205 2.1479 22.005 2.08326C16.2394 0.328055 9.98938 1.49993 5.72896 5.7291C1.46854 9.95826 0.322709 16.2395 2.08313 22.0103C2.14676 22.2249 2.26298 22.4202 2.42125 22.5785C2.57951 22.7367 2.7748 22.853 2.98938 22.9166C8.76021 24.677 15.005 23.5051 19.2706 19.2708C23.5363 15.0364 24.6717 8.76035 22.9165 2.99472Z" fill="#BF8256"/>
<path d="M5.72831 9.45826C9.97311 5.21347 16.2231 4.0416 21.9887 5.81243C22.1971 5.87705 22.3866 5.99144 22.5409 6.1457C22.6951 6.29997 22.8095 6.48947 22.8741 6.69785C23.2126 7.78946 23.4463 8.91085 23.5721 10.0468C23.8333 7.67593 23.6101 5.27668 22.9158 2.99472C22.8521 2.77962 22.7359 2.58371 22.5777 2.42462C22.4195 2.26553 22.2243 2.14823 22.0096 2.08326C16.2439 0.328055 9.99394 1.49993 5.72831 5.7291C4.07667 7.41469 2.82829 9.45251 2.07688 11.6896C1.32548 13.9267 1.09056 16.3049 1.38977 18.6458C1.7416 15.1769 3.27306 11.9338 5.72831 9.45826Z" fill="#DEA47A"/>
<path d="M22.9165 2.99472C22.8518 2.77924 22.7347 2.58317 22.5756 2.42409C22.4166 2.26501 22.2205 2.1479 22.005 2.08326C16.2394 0.328055 9.98938 1.49993 5.72896 5.7291C1.46854 9.95826 0.322709 16.2395 2.08313 22.0103C2.14676 22.2249 2.26298 22.4202 2.42125 22.5785C2.57951 22.7367 2.7748 22.853 2.98938 22.9166C8.76021 24.677 15.005 23.5051 19.2706 19.2708C23.5363 15.0364 24.6717 8.76035 22.9165 2.99472Z" stroke="#45413C" stroke-linecap="round" stroke-linejoin="round"/>
<path d="M22.9173 3.0835V2.99495C22.8536 2.77985 22.7374 2.58395 22.5792 2.42485C22.421 2.26576 22.2258 2.14846 22.0111 2.0835H21.9225L2.08398 21.9168V22.0106C2.1481 22.2258 2.26511 22.4214 2.42433 22.5797C2.58355 22.7381 2.7799 22.8539 2.99544 22.9168H3.08398L22.9173 3.0835Z" fill="#915E3A" stroke="#45413C" stroke-linecap="round" stroke-linejoin="round"/>
<path d="M15.7543 7.74951L17.2574 9.25212L9.25065 17.2589L7.74805 15.7563L15.7543 7.74951Z" fill="#E0E0E0" stroke="#45413C" stroke-linecap="round" stroke-linejoin="round"/>
<path d="M10.9993 10.9998C11.1321 10.8675 11.3119 10.7932 11.4993 10.7932C11.6868 10.7932 11.8666 10.8675 11.9993 10.9998L14.0046 13.0207C14.0919 13.0789 14.1652 13.1558 14.2191 13.2458C14.2731 13.3358 14.3064 13.4367 14.3166 13.5412C14.3268 13.6456 14.3136 13.751 14.2781 13.8498C14.2426 13.9486 14.1855 14.0382 14.1111 14.1122C14.0367 14.1862 13.9468 14.2428 13.8478 14.2778C13.7489 14.3128 13.6434 14.3254 13.539 14.3146C13.4346 14.3039 13.3339 14.27 13.2442 14.2156C13.1545 14.1612 13.0779 14.0875 13.0202 13.9998L10.9993 11.979C10.8733 11.8472 10.8029 11.6718 10.8029 11.4894C10.8029 11.307 10.8733 11.1317 10.9993 10.9998ZM11.7493 16.255C11.6166 16.3874 11.4368 16.4616 11.2493 16.4616C11.0619 16.4616 10.8821 16.3874 10.7493 16.255L8.74935 14.2498C8.6772 14.1857 8.61891 14.1075 8.57807 14.0201C8.53723 13.9326 8.5147 13.8377 8.51186 13.7412C8.50902 13.6447 8.52593 13.5487 8.56155 13.459C8.59718 13.3693 8.65076 13.2878 8.71902 13.2195C8.78727 13.1513 8.86876 13.0977 8.95848 13.062C9.04819 13.0264 9.14424 13.0095 9.24073 13.0123C9.33721 13.0152 9.4321 13.0377 9.51957 13.0786C9.60703 13.1194 9.68523 13.1777 9.74935 13.2498L11.7493 15.255C11.8817 15.3878 11.9559 15.5676 11.9559 15.755C11.9559 15.9425 11.8817 16.1223 11.7493 16.255ZM16.2546 11.7498C16.1218 11.8821 15.942 11.9564 15.7546 11.9564C15.5671 11.9564 15.3873 11.8821 15.2546 11.7498L13.2546 9.74984C13.1824 9.68571 13.1241 9.60752 13.0833 9.52006C13.0424 9.43259 13.0199 9.3377 13.0171 9.24122C13.0142 9.14473 13.0311 9.04868 13.0668 8.95897C13.1024 8.86925 13.156 8.78776 13.2242 8.71951C13.2925 8.65125 13.374 8.59767 13.4637 8.56204C13.5534 8.52642 13.6494 8.50951 13.7459 8.51235C13.8424 8.51519 13.9373 8.53772 14.0248 8.57856C14.1122 8.6194 14.1904 8.67768 14.2546 8.74984L16.2546 10.7498C16.3869 10.8826 16.4612 11.0624 16.4612 11.2498C16.4612 11.4373 16.3869 11.6171 16.2546 11.7498ZM23.6921 8.17692L20.7598 5.24463L18.2546 7.74463L23.1087 12.604C23.5041 11.1618 23.7003 9.67231 23.6921 8.17692ZM7.74935 18.255L5.24414 20.755L8.18164 23.6925C9.67531 23.7008 11.1631 23.5046 12.6035 23.1092L7.74935 18.255Z" fill="#F0F0F0" stroke="#45413C" stroke-linecap="round" stroke-linejoin="round"/>
<path d="M1.31277 16.8228L4.24506 19.755L6.7711 17.255L1.8961 12.4009C1.50044 13.8412 1.30417 15.3291 1.31277 16.8228Z" fill="#F0F0F0"/>
<path d="M2.92157 13.4219C2.33479 14.6155 1.90919 15.8818 1.65595 17.1875L1.31741 16.849C1.30061 15.3534 1.49524 13.863 1.89553 12.4219L2.92157 13.4219Z" fill="white"/>
<path d="M19.7559 4.24504L17.2611 6.77108L12.3965 1.89087C13.8353 1.49564 15.3211 1.29765 16.8132 1.30233L19.7559 4.24504Z" fill="#F0F0F0"/>
<path d="M19.7559 4.24504L17.2611 6.77108L12.3965 1.89087C13.8353 1.49564 15.3211 1.29765 16.8132 1.30233L19.7559 4.24504Z" fill="#F0F0F0"/>
<path d="M19.7559 4.24501L18.86 5.14605C17.7694 5.01792 16.6695 4.98829 15.5736 5.05751L12.3965 1.89084C13.8355 1.4965 15.3211 1.29852 16.8132 1.3023L19.7559 4.24501Z" fill="white"/>
<path d="M19.7555 4.24504L17.2607 6.77108L12.3961 1.89087C13.8349 1.49564 15.3207 1.29765 16.8128 1.30233L19.7555 4.24504ZM1.31277 16.8232L4.24506 19.7555L6.7711 17.2555L1.8961 12.4013C1.50044 13.8416 1.30417 15.3295 1.31277 16.8232Z" stroke="#45413C" stroke-linecap="round" stroke-linejoin="round"/>
</g>
<defs>
<clipPath id="clip0_687_937">
<rect width="25" height="25" fill="white"/>
</clipPath>
</defs>
</svg>
