<svg width="24" height="22" viewBox="0 0 24 22" fill="none" xmlns="http://www.w3.org/2000/svg">
<path d="M3 20.6465L21.6465 2" stroke="black" stroke-linecap="round"/>
<path d="M4.77539 11.005C4.77539 15.2051 8.4895 18.6097 13.0714 18.6097C17.6532 18.6097 21.3673 15.2051 21.3673 11.005C21.3673 6.80499 17.6532 3.40039 13.0714 3.40039C8.4895 3.40039 4.77539 6.80499 4.77539 11.005Z" fill="black" stroke="black" stroke-linecap="round" stroke-linejoin="round"/>
<path d="M14.7305 12.7161C14.7305 13.0309 15.0093 13.2864 15.3527 13.2864H16.3897C16.6097 13.2864 16.8208 13.2063 16.9763 13.0637C17.1319 12.9211 17.2193 12.7276 17.2193 12.526V11.7655C17.2193 11.5638 17.1319 11.3704 16.9763 11.2278C16.8208 11.0851 16.6097 11.005 16.3897 11.005H15.5601C15.3401 11.005 15.1291 10.9249 14.9735 10.7823C14.8179 10.6397 14.7305 10.4462 14.7305 10.2446V9.4841C14.7305 9.28241 14.8179 9.08898 14.9735 8.94637C15.1291 8.80375 15.3401 8.72363 15.5601 8.72363H16.5971C16.7621 8.72363 16.9204 8.78372 17.0371 8.89068C17.1538 8.99765 17.2193 9.14272 17.2193 9.29398M8.92334 8.72363L10.5825 13.2864L12.2417 8.72363" stroke="white" stroke-linecap="round" stroke-linejoin="round"/>
</svg>
