<svg width="25" height="25" viewBox="0 0 25 25" fill="none" xmlns="http://www.w3.org/2000/svg">
<g clip-path="url(#clip0_687_753)">
<path d="M22.4798 5.6476C26.2666 11.1593 24.867 18.6964 19.3556 22.4796C13.8439 26.2663 6.30641 24.8675 2.51969 19.3546C-1.26703 13.8429 0.13258 6.30502 5.64469 2.51869C11.1564 -1.26647 18.6931 0.132753 22.4767 5.64369" fill="#C3D82E"/>
<path d="M17.7086 23.4356C17.7086 23.4356 11.9273 10.5536 18.0859 1.7583L18.6027 2.04346C18.6027 2.04346 12.152 10.881 18.934 22.7763L17.7086 23.4364M2.52266 19.3563C2.52266 19.3563 8.21914 10.8958 6.64922 1.90205L5.94766 2.38447C5.94766 2.38447 9.02187 4.89463 2.08398 18.7173" fill="white"/>
</g>
<defs>
<clipPath id="clip0_687_753">
<rect width="25" height="25" fill="white"/>
</clipPath>
</defs>
</svg>
