<svg width="24" height="24" viewBox="0 0 24 24" fill="none" xmlns="http://www.w3.org/2000/svg">
<g clip-path="url(#clip0_688_19312)">
<circle cx="12" cy="12" r="12" fill="#EAEFFE"/>
<path d="M17.3317 8.98428C16.9146 9.15653 16.465 9.26972 15.9992 9.32385C16.4758 9.06302 16.8442 8.64962 17.0175 8.15256C16.5679 8.39863 16.0696 8.57088 15.5442 8.66931C15.1163 8.24607 14.515 8 13.8325 8C12.5596 8 11.5196 8.94491 11.5196 10.1113C11.5196 10.2786 11.5413 10.441 11.5792 10.5936C9.65083 10.505 7.93375 9.66343 6.79083 8.38879C6.59042 8.69884 6.47667 9.06302 6.47667 9.44689C6.47667 10.1802 6.88292 10.8298 7.51125 11.1989C7.12667 11.1989 6.76917 11.1005 6.455 10.9528V10.9676C6.455 11.9912 7.25667 12.8476 8.31833 13.0395C7.97748 13.1242 7.61963 13.136 7.27292 13.0739C7.42004 13.4935 7.70817 13.8606 8.0968 14.1236C8.48544 14.3867 8.95503 14.5325 9.43958 14.5405C8.61822 15.1313 7.60008 15.4506 6.5525 15.4461C6.36833 15.4461 6.18417 15.4362 6 15.4165C7.02917 16.0169 8.25333 16.3664 9.56417 16.3664C13.8325 16.3664 16.1779 13.1478 16.1779 10.3573C16.1779 10.2638 16.1779 10.1753 16.1725 10.0817C16.6275 9.78646 17.0175 9.41244 17.3317 8.98428Z" fill="black"/>
</g>
<defs>
<clipPath id="clip0_688_19312">
<rect width="24" height="24" fill="white"/>
</clipPath>
</defs>
</svg>
