<svg class="svg-icon" style="width: 1em;height: 1em;vertical-align: middle;fill: currentColor;overflow: hidden;" viewBox="0 0 1024 1024" version="1.1" xmlns="http://www.w3.org/2000/svg"><path d="M496 304m-208 0a208 208 0 1 0 416 0 208 208 0 1 0-416 0Z"  /><path d="M600.64 576a421.44 421.44 0 0 0-111.36-14.4c-358.4 0-369.28 384-369.28 384H582.4A256 256 0 0 1 600.64 576z"  /><path d="M768 576a192 192 0 1 0 192 192 192 192 0 0 0-192-192z m42.56 228.48v96h-64v-96h-96v-64h96v-96h64v96h96v64z"  /></svg>