<svg width="19" height="19" viewBox="0 0 19 19" fill="none" xmlns="http://www.w3.org/2000/svg">
<path d="M17.4193 5.54167H18.211V13.4583H17.4193V15.8333C17.4193 16.2706 17.0649 16.625 16.6276 16.625H2.3776C1.94038 16.625 1.58594 16.2706 1.58594 15.8333V3.16667C1.58594 2.72945 1.94038 2.375 2.3776 2.375H16.6276C17.0649 2.375 17.4193 2.72945 17.4193 3.16667V5.54167ZM15.836 13.4583H11.086C8.89985 13.4583 7.1276 11.6861 7.1276 9.5C7.1276 7.31388 8.89985 5.54167 11.086 5.54167H15.836V3.95833H3.16927V15.0417H15.836V13.4583ZM16.6276 11.875V7.125H11.086C9.77424 7.125 8.71095 8.18829 8.71095 9.5C8.71095 10.8117 9.77424 11.875 11.086 11.875H16.6276ZM11.086 8.70833H13.461V10.2917H11.086V8.70833Z" fill="white"/>
</svg>
