<svg width="24" height="24" viewBox="0 0 24 24" fill="none" xmlns="http://www.w3.org/2000/svg">
<g clip-path="url(#clip0_688_15660)">
<circle cx="12" cy="12" r="12" fill="#EAEFFE"/>
<path d="M12.5007 6.0835C15.4923 6.0835 17.9173 8.50854 17.9173 11.5002C17.9173 14.4918 15.4923 16.9168 12.5007 16.9168C11.5434 16.9184 10.603 16.665 9.77608 16.1829L7.08616 16.9168L7.81849 14.2258C7.33592 13.3986 7.08239 12.4578 7.08399 11.5002C7.08399 8.50854 9.50903 6.0835 12.5007 6.0835ZM10.6547 8.95433L10.5463 8.95866C10.4762 8.96293 10.4076 8.98136 10.3448 9.01283C10.2861 9.0461 10.2324 9.0877 10.1856 9.13633C10.1206 9.19754 10.0837 9.25062 10.0442 9.30208C9.84385 9.56257 9.73598 9.88237 9.73762 10.211C9.7387 10.4764 9.80803 10.7348 9.91637 10.9764C10.1379 11.465 10.5025 11.9822 10.9835 12.4616C11.0994 12.577 11.2131 12.6929 11.3355 12.8007C11.9332 13.3269 12.6454 13.7064 13.4155 13.909L13.7232 13.9561C13.8234 13.9615 13.9236 13.9539 14.0244 13.949C14.1821 13.9409 14.3362 13.8982 14.4756 13.8239C14.5465 13.7874 14.6157 13.7476 14.683 13.7047C14.683 13.7047 14.7063 13.6896 14.7507 13.656C14.8239 13.6018 14.8688 13.5634 14.9295 13.5C14.9745 13.4534 15.0135 13.3987 15.0432 13.3364C15.0855 13.2481 15.1277 13.0797 15.1451 12.9394C15.1581 12.8321 15.1543 12.7736 15.1527 12.7373C15.1505 12.6794 15.1023 12.6192 15.0497 12.5938L14.7345 12.4524C14.7345 12.4524 14.2632 12.2471 13.9751 12.116C13.9449 12.1029 13.9126 12.0953 13.8797 12.0938C13.8427 12.09 13.8052 12.0942 13.7699 12.1061C13.7346 12.1179 13.7022 12.1372 13.675 12.1626C13.6723 12.1615 13.636 12.1924 13.2444 12.6669C13.2219 12.6971 13.1909 12.7199 13.1554 12.7325C13.1199 12.745 13.0815 12.7467 13.045 12.7373C13.0097 12.7279 12.9752 12.7159 12.9416 12.7016C12.8744 12.6734 12.8511 12.6626 12.8051 12.6431C12.4942 12.5074 12.2064 12.3241 11.952 12.0998C11.8837 12.0402 11.8203 11.9752 11.7553 11.9124C11.5422 11.7083 11.3565 11.4774 11.2028 11.2255L11.1709 11.1741C11.1479 11.1395 11.1294 11.1022 11.1156 11.063C11.095 10.9834 11.1487 10.9195 11.1487 10.9195C11.1487 10.9195 11.2803 10.7754 11.3415 10.6974C11.4011 10.6216 11.4515 10.5479 11.484 10.4954C11.5479 10.3925 11.5679 10.2868 11.5343 10.205C11.3827 9.83454 11.2256 9.46566 11.0642 9.0995C11.0322 9.02691 10.9374 8.97491 10.8513 8.96462C10.822 8.96137 10.7928 8.95812 10.7635 8.95595C10.6908 8.95234 10.6179 8.95306 10.5452 8.95812L10.6541 8.95379L10.6547 8.95433Z" fill="black"/>
</g>
<defs>
<clipPath id="clip0_688_15660">
<rect width="24" height="24" fill="white"/>
</clipPath>
</defs>
</svg>
